<?xml version="1.0" encoding="UTF-8" standalone="no"?>
<svg
   xmlns:dc="http://purl.org/dc/elements/1.1/"
   xmlns:cc="http://creativecommons.org/ns#"
   xmlns:rdf="http://www.w3.org/1999/02/22-rdf-syntax-ns#"
   xmlns:svg="http://www.w3.org/2000/svg"
   xmlns="http://www.w3.org/2000/svg"
   id="svg8"
   version="1.1"
   viewBox="0 0 178.54561 27.731651"
   height="27.731651mm"
   width="178.54561mm">
  <defs
     id="defs2" />
  <metadata
     id="metadata5">
    <rdf:RDF>
      <cc:Work
         rdf:about="">
        <dc:format>image/svg+xml</dc:format>
        <dc:type
           rdf:resource="http://purl.org/dc/dcmitype/StillImage" />
        <dc:title></dc:title>
      </cc:Work>
    </rdf:RDF>
  </metadata>
  <g
     transform="translate(-24.301569,-13.498525)"
     id="layer1">
    <g
       style="font-style:normal;font-weight:normal;font-size:30.3389px;line-height:125%;font-family:sans-serif;letter-spacing:0px;word-spacing:0px;fill:#000000;fill-opacity:1;stroke:none;stroke-width:0.264583px;stroke-linecap:butt;stroke-linejoin:miter;stroke-opacity:1"
       id="text12"
       aria-label="york.games">
      <path
         id="path44"
         style="font-style:normal;font-variant:normal;font-weight:normal;font-stretch:normal;font-family:'3D Isometric';-inkscape-font-specification:'3D Isometric';letter-spacing:-2.64583px;stroke-width:0.264583px"
         d="m 32.656617,38.326648 h -0.04444 l -0.04444,-0.01481 v -0.01481 h -0.01481 l -3.333131,-1.940623 q -0.103697,-0.05926 -0.103697,-0.177767 l -0.01481,-3.999757 -1.125858,0.666626 -0.05926,0.01481 q -0.08888,0 -0.133325,-0.01481 h -0.01481 v -0.01481 l -3.333131,-1.940623 q -0.103697,-0.05926 -0.103697,-0.162953 l -0.02963,-10.428996 q 0.01481,-0.103698 0.103697,-0.162953 1.940623,-1.125858 1.999879,-1.125858 0.05926,0 1.762856,0.992532 l 1.7036,1.007347 0.02963,0.01481 v 0.01481 h 0.01481 l 0.01481,0.02963 0.01481,0.05926 0.01481,4.029385 3.89606,-2.251715 -0.02963,-8.118026 h 0.01481 v -0.02963 q 0,-0.02963 0.01481,-0.04444 0.01481,-0.02963 0.02963,-0.04444 0.02963,-0.01481 1.022161,-0.577743 0.992532,-0.577743 1.036974,-0.577743 0.04444,0 1.748042,0.992533 1.7036,0.977718 1.7036,0.992532 l 0.02963,0.01481 v 0.01481 h 0.01481 l 0.01481,0.02963 0.01481,0.05926 0.01481,0.02963 0.02963,10.414183 q 0,0.118511 -0.103697,0.177767 l -4.666383,2.681319 0.02963,8.103212 q -0.01481,0.118511 -0.103697,0.177767 -1.955437,1.125857 -2.014693,1.125857 z m 4.710826,-21.806084 1.511019,-0.874021 -2.933155,-1.7036 -1.51102,0.874021 z m -0.177767,8.103212 -0.01481,-7.747678 -2.933156,-1.718414 0.01481,7.747678 z m -7.214377,4.399733 7.021796,-4.059013 -2.933156,-1.7036 -4.103454,2.370226 z m -2.310971,3.288689 -0.02963,-9.940137 -2.933155,-1.7036 0.02963,9.940137 z m 0.177767,-10.280857 1.511019,-0.874021 -2.947969,-1.703601 -1.496206,0.859208 z m 4.621942,15.747192 -0.02963,-7.525469 -2.918342,1.7036 v 4.118269 z m 0.399975,0 1.496206,-0.874021 -0.01481,-8.088398 q 0,-0.118511 0.103697,-0.177767 l 4.666384,-2.696132 -0.02963,-9.940138 -1.51102,0.874021 0.02963,8.088398 -0.02963,0.103698 q -0.02963,0.04444 -3.896059,2.281343 -3.851618,2.222087 -3.910874,2.222087 -0.192581,0 -0.192581,-0.192581 l -0.02963,-7.866189 -1.496205,0.859207 0.01481,9.940137 4.473802,-2.577621 q 0.04444,-0.02963 0.103698,-0.02963 0.19258,0 0.19258,0.207395 z" />
      <path
         id="path46"
         style="font-style:normal;font-variant:normal;font-weight:normal;font-stretch:normal;font-family:'3D Isometric';-inkscape-font-specification:'3D Isometric';letter-spacing:-2.64583px;stroke-width:0.264583px"
         d="m 47.461579,41.082037 q -0.05926,0 -0.05926,-0.01481 h -0.02963 l -3.347945,-1.955437 q -0.08888,-0.05926 -0.103698,-0.162953 l -0.04444,-18.635906 q 0.01481,-0.103698 0.103697,-0.162954 11.480785,-6.636634 11.54004,-6.636634 0.04444,0 1.748043,0.992533 l 1.7036,0.992532 h 0.01481 v 0.01481 h 0.01481 v 0.01481 h 0.01481 l 0.01481,0.02963 v 0.01481 q 0.01481,0.05926 0.01481,0.05926 0.01481,0 0.01481,0.01481 l 0.04444,18.635906 q 0,0.118512 -0.103697,0.177767 -11.465971,6.621821 -11.540041,6.621821 z m -0.192581,-0.548115 -0.05926,-18.147047 -2.933156,-1.718414 0.05926,18.16186 z m 0.14814,-18.502581 11.036367,-6.369984 -2.933156,-1.7036 -11.036367,6.369983 z M 47.668974,40.533922 58.705341,34.163938 58.6609,16.002077 47.624532,22.386875 Z m 1.7036,-2.740575 q -0.207394,0 -0.207394,-0.192581 l -0.04444,-14.250987 q 0.01481,-0.103697 0.103697,-0.162953 7.658795,-4.444175 7.732864,-4.444175 0.192581,0 0.192581,0.207395 l 0.04444,14.265801 q -0.01481,0.08888 -0.103697,0.148139 -7.658795,4.429361 -7.718051,4.429361 z m 0.192581,-4.414547 3.881246,-2.251715 -0.02963,-9.91051 -3.881246,2.251716 z m 0,3.866432 7.021796,-4.059013 -2.933155,-1.7036 -4.088641,2.370227 z m 7.229191,-4.399733 -0.04444,-13.539919 -2.918341,1.688787 0.02963,10.132718 z" />
      <path
         id="path48"
         style="font-style:normal;font-variant:normal;font-weight:normal;font-stretch:normal;font-family:'3D Isometric';-inkscape-font-specification:'3D Isometric';letter-spacing:-2.64583px;stroke-width:0.264583px"
         d="m 67.110692,41.230176 h -0.05926 q 0,-0.01481 -0.02963,-0.02963 -0.01481,0 -3.347945,-1.940623 -0.103697,-0.05926 -0.103697,-0.177767 L 63.51091,20.446252 q 0.01481,-0.103698 0.103697,-0.162953 11.480785,-6.621821 11.540041,-6.621821 0.05926,0 1.748042,0.992533 1.7036,0.977718 1.718414,0.992532 h 0.01481 l 0.02963,0.05926 q 0.02963,0 0.05926,10.503066 0,0.118511 -0.103698,0.177767 l -3.718293,2.148018 q 4.207152,4.799709 4.221966,4.873778 0,0.07407 -0.04444,0.133325 l -1.585089,2.133204 h -0.01481 q 0,0.02963 -0.02963,0.04444 -0.02963,0.01481 -0.07407,0.01481 v 0.01481 q -0.05925,-0.01481 -0.103697,-0.01481 -0.04444,-0.01481 -1.733228,-0.992532 -1.673973,-0.977719 -1.703601,-1.007347 l -2.666504,-3.051666 -1.970251,1.140671 0.01481,8.103212 q 0,0.118511 -0.103698,0.177767 -1.940623,1.125858 -1.999878,1.125858 z M 66.903297,40.682061 66.858855,22.5202 63.9257,20.8166 l 0.04444,18.147047 z m 0.148139,-18.502581 11.036367,-6.384798 -2.933155,-1.7036 -11.036367,6.369984 z m 9.317953,12.577014 -4.118269,-4.696011 -0.725882,0.429604 2.592436,2.962783 z m -9.066117,5.925567 1.51102,-0.874021 -0.02963,-8.103212 q 0.01481,-0.103698 0.103697,-0.162953 l 3.303504,-1.910995 q 0.07407,-0.02963 0.148139,-0.02963 0.04444,0.01481 4.977476,5.629288 l 1.333252,-1.807298 q -4.266408,-4.888592 -4.266408,-4.947848 0,-0.103697 0.103698,-0.162953 l 3.836804,-2.222087 -0.02963,-9.940138 -11.036367,6.369984 z m 1.688787,-10.962298 q -0.207395,0 -0.207395,-0.192581 l -0.01481,-6.029264 q 0,-0.118511 0.103698,-0.177767 7.688422,-4.42936 7.71805,-4.42936 0.207395,0 0.207395,0.207394 l 0.01481,6.029264 q -0.01481,0.103698 -0.103697,0.162953 -7.673608,4.429361 -7.71805,4.429361 z m 0.177767,-4.414547 3.89606,-2.251715 v -1.688786 l -3.89606,2.251715 z m 0.01481,3.866432 7.021796,-4.059013 -2.933155,-1.7036 -4.088641,2.370227 z m 7.229191,-4.399733 -0.01481,-5.333009 -2.933156,1.688786 v 1.925809 z" />
      <path
         id="path50"
         style="font-style:normal;font-variant:normal;font-weight:normal;font-stretch:normal;font-family:'3D Isometric';-inkscape-font-specification:'3D Isometric';letter-spacing:-2.64583px;stroke-width:0.264583px"
         d="m 86.700548,41.185734 h -0.05925 q 0,-0.01481 -0.01481,-0.01481 l -0.02963,-0.01481 -3.347945,-1.940623 q -0.08888,-0.05926 -0.08888,-0.177767 L 83.100767,20.40181 q 0.01481,-0.103697 0.103697,-0.148139 1.955437,-1.140672 1.999879,-1.140672 0.05926,0 1.762856,0.992533 l 1.7036,0.992532 v 0.01481 h 0.02963 v 0.02963 l 0.02963,0.01481 0.01481,0.08888 0.01481,3.347945 4.577499,-10.59195 h 0.01481 l 0.02963,-0.04444 0.07407,-0.04444 v -0.01481 h 0.103697 l 1.659159,0.325906 3.333131,1.940623 0.02963,0.01481 v 0.01481 l 0.04444,0.02963 0.01481,0.02963 0.01481,0.05925 v 0.01481 q 0,0.04444 -0.01481,0.07407 l -4.873778,11.27339 4.888592,5.570032 q 0.04444,0.04444 0.04444,0.118511 0,0.08888 -1.614717,2.26653 h -0.01481 q 0,0.02963 -0.02963,0.02963 l -0.02963,0.02963 h -0.04444 v 0.01481 l -0.148139,-0.01481 q 0,-0.01481 -1.688787,-0.992532 -1.673972,-0.977719 -1.7036,-1.007346 l -2.666505,-3.036853 -1.985065,1.125857 0.02963,8.103212 q 0,0.118512 -0.103697,0.177767 -1.940623,1.125858 -1.999879,1.125858 z m 10.636392,-25.257727 -2.296157,-1.348066 -0.399976,-0.07407 2.296157,1.333252 z M 91.781721,27.275467 96.611058,16.120588 93.618647,14.38736 88.78931,25.542239 Z m -3.007225,1.851739 2.696133,-1.555461 -2.710946,-1.585089 z m -2.281343,11.510413 -0.04444,-18.161861 -2.94797,-1.7036 0.05926,18.161861 z m 0.14814,-18.502581 1.511019,-0.874021 -2.947969,-1.7036 -1.496206,0.859207 z m 9.317953,12.577015 -4.118269,-4.696012 -0.725882,0.429604 2.592435,2.962783 z m -9.066117,5.925566 1.51102,-0.874021 -0.02963,-8.088398 q 0,-0.118511 0.103697,-0.177767 l 3.303503,-1.910995 q 0.05926,-0.02963 0.133326,-0.02963 0.05925,0.01481 4.992289,5.629288 L 98.240589,33.3788 q -4.903407,-5.59966 -4.903407,-5.658916 0,-0.04444 4.829337,-11.228948 l -1.185113,-0.222208 -4.91822,11.391901 -0.02963,0.02963 v 0.01481 h -0.01481 v 0.01481 l -3.392387,1.955437 q -0.103697,0 -0.148139,-0.02963 -0.103697,-0.05926 -0.103697,-0.162954 l -0.02963,-7.866189 -1.496206,0.859207 z" />
      <path
         id="path52"
         style="font-weight:bold;letter-spacing:-2.64583px"
         d="m 104.51273,40.193202 q -0.0296,0 -0.0444,-0.01481 l -0.0592,-0.01481 -3.33313,-1.940623 q -0.1037,-0.05926 -0.1037,-0.177767 V 35.83791 q 0,-0.103697 0.0889,-0.162953 1.95544,-1.125857 2.0147,-1.125857 0.0593,0 1.74804,0.992532 1.7036,0.977718 1.71841,0.992532 v 0.01481 l 0.0296,0.01481 0.0148,0.02963 v 0.01481 h 0.0148 l 0.0148,0.05926 v 2.222087 q 0,0.103697 -0.0889,0.162953 -1.95544,1.140672 -2.0147,1.140672 z m -0.20739,-0.562929 v -1.718414 l -2.93316,-1.703601 v 1.718414 z m 0.20739,-2.073948 1.49621,-0.859208 -2.93315,-1.718414 -1.51102,0.874021 z" />
      <path
         id="path54"
         style="font-weight:bold;letter-spacing:-2.64583px"
         d="m 112.90328,41.067223 h -0.0593 l -3.37757,-1.955437 q -0.0889,-0.05926 -0.1037,-0.177767 l -0.0444,-18.635906 q 0.0148,-0.103698 0.1037,-0.162953 11.48078,-6.636635 11.52522,-6.636635 0.0593,0 1.76286,0.992533 l 1.7036,0.992532 0.0148,0.01481 h 0.0148 l 0.0148,0.02963 q 0,0.01481 0.0148,0.01481 v 0.02963 q 0.0148,0 0.0148,0.04444 v 0.01481 q 0.0148,0 0.0148,2.207274 0,0.118511 -0.1037,0.177767 l -9.42165,5.436707 0.0296,9.910509 3.88125,-2.236901 v -1.7036 l -0.23703,0.133325 h -0.10369 l -3.37758,-1.970251 q -0.10369,-0.05926 -0.10369,-0.177767 l -0.0148,-2.192459 q 0.0148,0 0.0148,-0.01481 0,-0.103698 0.0889,-0.148139 5.76261,-3.333131 5.82187,-3.333131 0.0593,0 1.74804,0.992532 1.7036,0.977718 1.71842,0.992532 l 0.0148,0.01481 q 0.0148,0 0.0148,0.01481 l 0.0148,0.02963 h 0.0148 v 0.01481 l 0.0148,0.05926 0.0296,10.428996 q 0,0.118512 -0.10369,0.177767 -11.46597,6.621821 -11.54004,6.621821 z m 5.49596,-12.058528 v -1.733228 l -2.93316,-1.7036 v 1.733228 z m 0.20739,-2.073948 5.30338,-3.066481 -2.93315,-1.718414 -5.3182,3.066481 z m -3.59978,10.295671 7.0218,-4.059013 -2.93316,-1.7036 -4.08864,2.370227 z m 7.22919,-4.399733 -0.0148,-5.333009 -2.93316,1.688786 v 1.940623 z m -9.52535,7.688423 -0.0593,-18.147047 -2.93316,-1.718414 0.0445,18.16186 z m 0.14814,-18.502581 11.03637,-6.369984 -2.94797,-1.7036 -11.03637,6.369984 z" />
      <path
         id="path56"
         style="font-weight:bold;letter-spacing:-2.64583px"
         d="m 134.55227,25.157077 3.89606,-2.251715 v -1.688787 l -3.89606,2.236902 z m 0.0148,3.866432 7.0218,-4.059013 -2.93316,-1.7036 -4.10345,2.355412 z m 7.21438,-4.414547 -0.0148,-5.318196 -2.91834,1.688787 v 1.925809 z m -9.28833,16.473075 -0.0741,-0.01481 q 0,-0.01481 -0.0148,-0.01481 l -3.36276,-1.940623 q -0.0889,-0.05926 -0.0889,-0.177767 l -0.0593,-18.635906 q 0.0148,-0.103698 0.1037,-0.162953 11.48078,-6.636635 11.54004,-6.636635 0.0592,0 1.76285,0.992533 l 1.7036,1.007346 0.0296,0.01481 0.0444,0.103697 0.0445,18.65072 q 0,0.118512 -0.0889,0.177767 l -1.95543,1.125858 h -0.1037 l -3.39239,-1.970251 q -0.1037,-0.05926 -0.1037,-0.177767 l -0.0148,-3.999757 -3.89606,2.251715 0.0296,8.103212 q 0,0.103697 -0.1037,0.162953 -1.95544,1.140672 -1.99988,1.140672 z m -0.20739,-0.562929 -0.0444,-18.147047 -2.94797,-1.718414 0.0592,18.16186 z m 0.14814,-18.502581 11.03636,-6.369984 -2.93315,-1.7036 -11.03637,6.369984 z m 9.37721,13.006618 -0.0148,-7.525469 -2.93315,1.7036 0.0148,4.103455 z" />
      <path
         id="path58"
         style="font-weight:bold;letter-spacing:-2.64583px"
         d="m 152.06817,41.082037 q -0.0741,0 -0.0741,-0.01481 h -0.0296 l -3.34795,-1.955437 q -0.0889,-0.05926 -0.1037,-0.162953 l -0.0444,-18.635906 q 0.0148,-0.103698 0.1037,-0.162954 11.48079,-6.636634 11.54004,-6.636634 0.0444,0 1.76286,0.992533 l 1.7036,0.992532 v 0.01481 h 0.0148 v 0.01481 h 0.0148 l 0.0148,0.02963 0.0296,0.08888 0.0444,18.635906 q 0,0.118512 -0.0889,0.177767 -1.94063,1.111044 -1.97026,1.125858 -0.0148,0 -0.0444,0 l -0.0741,-0.01481 -2.59243,-1.51102 0.0148,2.977598 q -0.0148,0.103697 -0.1037,0.162953 -1.94062,1.125857 -1.97025,1.140671 -0.0148,0 -0.0444,0 -0.0296,0 -0.0592,0 -0.0148,-0.01481 -0.0296,-0.02963 l -2.57762,-1.496205 0.0148,2.962783 q 0,0.118511 -0.1037,0.177767 -1.94062,1.125858 -1.99988,1.125858 z m -0.20739,-0.548115 -0.0593,-18.147047 -2.93315,-1.718414 0.0592,18.16186 z m 0.14814,-18.502581 11.03637,-6.369984 -2.93316,-1.7036 -11.03637,6.369983 z m 4.62194,15.747192 -0.0444,-15.732378 -2.45911,1.422136 0.0296,12.888106 z m 4.75527,-2.740574 -0.0444,-15.732379 -2.45911,1.407322 0.0444,12.888107 z" />
      <path
         id="path60"
         style="font-weight:bold;letter-spacing:-2.64583px"
         d="m 171.6284,41.067223 h -0.0592 l -3.37757,-1.955437 q -0.0889,-0.05926 -0.1037,-0.177767 l -0.0444,-18.635906 q 0.0148,-0.103698 0.10369,-0.162953 11.48079,-6.636635 11.54004,-6.636635 0.0444,0 1.74805,0.992533 1.7036,0.992532 1.71841,1.007346 0.0148,0 0.0296,0.04444 0.0296,0.04444 0.0296,0.05925 0.0148,0.01481 0.0148,2.236902 0,0.118511 -0.1037,0.177767 l -9.42165,5.436707 v 1.7036 q 5.94038,-3.436828 5.99964,-3.436828 0.0592,0 1.76285,0.992532 1.7036,0.992532 1.71842,1.007346 0.0148,0 0.0148,0.02963 0.0148,0.01481 0.0296,0.01481 0.0148,0.103697 0.0296,2.296157 0,0.103697 -0.1037,0.162953 l -9.43646,5.451521 0.0148,1.688786 q 5.7478,-3.318317 5.80705,-3.318317 0.0593,0 3.46646,1.985065 h 0.0148 q 0.0148,0.02963 0.0296,0.02963 v 0.02963 h 0.0148 q 0.0148,0.05926 0.0296,2.281343 0,0.118511 -0.10369,0.177767 -11.28821,6.518123 -11.36228,6.518123 z m 2.08877,-12.043714 8.93279,-5.155243 -2.94797,-1.718414 -5.99964,3.466456 z m -2.28135,11.495599 -0.0593,-18.147047 -2.93316,-1.718414 0.0593,18.16186 z m 0.14814,-18.502581 11.03637,-6.369984 -2.93316,-1.7036 -11.03636,6.369984 z m 2.14802,15.213891 8.75502,-5.051545 -2.94797,-1.7036 -5.80705,3.362759 z" />
      <path
         id="path62"
         style="font-weight:bold;letter-spacing:-2.64583px"
         d="m 191.20345,41.082037 h -0.0593 l -3.37757,-1.970251 q -0.1037,-0.05926 -0.1037,-0.162953 v -2.207274 q 0.0148,-0.103697 0.1037,-0.162953 l 9.42165,-5.451521 v -1.688786 q -5.94038,3.436828 -5.99964,3.436828 -0.0444,0 -3.45164,-1.970251 -0.0889,-0.05926 -0.0889,-0.177767 l -0.0296,-10.414182 q 0.0148,-0.103698 0.0889,-0.162954 11.4956,-6.636634 11.54004,-6.636634 0.0593,0 3.46646,1.985065 h 0.0148 q 0,0.01481 0,0.02963 0.0148,0 0.0296,0 l 0.0296,0.118511 q 0.0148,0 0.0148,2.207274 0,0.103697 -0.10369,0.177767 l -9.42166,5.436707 v 1.7036 q 5.94038,-3.436829 5.99964,-3.436829 0.0593,0 1.74804,0.992533 1.7036,0.977718 1.71842,0.992532 h 0.0148 l 0.0296,0.05926 q 0.0296,0 0.0593,10.503066 0,0.118512 -0.10369,0.177767 -11.46597,6.621821 -11.54004,6.621821 z m 2.08876,-12.058528 8.91798,-5.155243 -2.93316,-1.7036 -5.99964,3.466456 z m -2.31097,3.288689 -0.0296,-9.925323 -2.93316,-1.718414 0.0296,9.940137 z m 0.17776,-10.280857 11.03637,-6.369984 -2.94797,-1.7036 -11.03636,6.369983 z m -0.14813,18.502581 -0.0148,-1.718415 -2.93315,-1.718414 v 1.733228 z m 0.19258,-2.073949 9.12537,-5.273754 -2.93316,-1.7036 -9.12537,5.273754 z m 9.33276,-5.614474 -0.0148,-5.333009 -2.93316,1.688786 v 1.925809 z" />
    </g>
  </g>
</svg>
